<?xml version="1.0" standalone="no"?>
<!DOCTYPE svg PUBLIC "-//W3C//DTD SVG 20010904//EN"
 "http://www.w3.org/TR/2001/REC-SVG-20010904/DTD/svg10.dtd">
<svg version="1.0" xmlns="http://www.w3.org/2000/svg"
 width="553.000000pt" height="205.000000pt" viewBox="0 0 553.000000 205.000000"
 preserveAspectRatio="xMidYMid meet">

<g transform="translate(0.000000,205.000000) scale(0.100000,-0.100000)"
fill="#000000" stroke="none">
<path d="M3100 1966 c-64 -18 -100 -39 -142 -83 -70 -72 -86 -172 -42 -261 42
-85 117 -129 306 -180 59 -16 118 -37 133 -46 36 -23 49 -62 34 -98 -17 -43
-61 -61 -131 -56 -47 4 -64 10 -89 34 -17 16 -36 48 -42 72 l-11 42 -66 -5
c-36 -3 -94 -8 -129 -11 l-63 -6 6 -44 c12 -91 83 -188 164 -222 96 -42 253
-53 374 -28 81 18 118 36 172 86 l42 39 12 -58 c7 -35 28 -82 50 -117 69 -106
162 -169 299 -201 l70 -16 -39 -51 c-100 -131 -114 -366 -33 -533 73 -150 212
-223 419 -223 82 0 179 21 237 51 58 29 126 95 160 154 l29 50 0 -122 0 -123
350 0 350 0 0 110 0 110 -212 2 -213 3 -3 337 -2 338 -135 0 -135 0 0 -122 0
-123 -24 41 c-70 122 -146 176 -299 209 l-29 6 40 29 c121 87 228 236 266 371
53 187 15 352 -108 474 -159 157 -404 183 -645 70 -151 -72 -261 -180 -348
-340 -18 -33 -33 -54 -33 -47 0 27 -82 100 -140 126 -32 15 -118 42 -190 61
-72 18 -138 39 -146 46 -20 17 -17 63 5 83 28 25 90 31 134 12 29 -12 43 -26
58 -60 l19 -44 78 4 c42 3 100 7 128 10 l52 5 -10 42 c-22 99 -85 166 -189
198 -72 22 -265 25 -339 5z m1332 -67 c130 -28 240 -114 300 -236 27 -55 33
-80 36 -156 6 -113 -8 -179 -61 -287 -33 -68 -58 -102 -127 -170 -96 -96 -180
-149 -291 -185 -260 -82 -514 4 -610 208 -79 170 -52 363 76 542 50 70 190
187 278 232 111 56 278 77 399 52z m31 -1200 c72 -37 107 -112 107 -230 0
-176 -58 -259 -179 -259 -131 0 -191 78 -191 250 0 126 32 198 105 238 26 15
130 15 158 1z"/>
<path d="M4253 1672 c-18 -10 -49 -33 -69 -51 -60 -57 -70 -111 -28 -160 36
-43 74 -47 164 -19 41 13 83 22 92 20 29 -6 33 -41 7 -68 -25 -26 -58 -31 -89
-12 -16 10 -25 8 -57 -18 -21 -17 -37 -35 -37 -40 4 -20 54 -47 91 -48 22 0
57 9 83 23 99 50 144 124 120 195 -25 78 -97 96 -212 53 -68 -26 -88 -25 -88
2 0 37 68 69 85 41 6 -10 95 46 95 61 0 3 -11 14 -25 23 -31 21 -91 20 -132
-2z"/>
<path d="M3972 1469 c-49 -36 -54 -21 48 -164 31 -44 60 -88 64 -99 14 -39
-40 -62 -74 -31 -15 13 -20 11 -54 -24 -42 -43 -41 -53 6 -77 40 -21 87 -20
129 1 90 46 123 115 90 189 -19 45 -150 236 -161 236 -3 0 -25 -14 -48 -31z"/>
<path d="M70 1525 l0 -445 135 0 135 0 0 175 c0 191 1 194 57 180 40 -10 68
-46 156 -210 l82 -150 153 -3 c106 -2 152 1 152 9 0 22 -145 284 -177 320 -18
20 -47 43 -64 52 l-31 15 35 11 c20 7 54 25 76 41 127 92 122 321 -9 402 -64
39 -143 48 -442 48 l-258 0 0 -445z m463 254 c79 -22 86 -124 11 -155 -20 -8
-69 -14 -119 -14 l-85 0 0 83 c0 46 3 87 7 90 10 11 144 8 186 -4z"/>
<path d="M251 905 c-128 -36 -211 -132 -211 -244 0 -139 94 -219 321 -276 121
-30 165 -53 180 -92 20 -52 -25 -107 -91 -113 -93 -8 -152 28 -172 106 l-12
43 -65 -5 c-194 -14 -191 -14 -191 -39 0 -53 43 -139 94 -190 73 -72 137 -90
316 -89 173 0 228 19 312 104 l56 57 36 -43 c71 -85 220 -132 385 -121 113 7
186 35 250 95 48 45 111 155 111 194 0 13 -22 24 -87 43 -49 15 -101 30 -117
36 -16 5 -30 9 -31 9 -2 0 -6 -12 -10 -27 -13 -53 -56 -114 -91 -129 -77 -32
-177 -9 -213 50 -43 70 -51 246 -15 337 29 72 113 118 190 103 43 -8 97 -52
114 -94 8 -21 18 -29 29 -26 9 3 62 15 119 27 79 17 102 26 102 39 0 27 -68
133 -111 172 -60 55 -134 80 -258 86 -171 8 -281 -29 -372 -125 -54 -57 -59
-60 -59 -40 0 33 -63 97 -127 129 -64 31 -73 33 -197 35 -93 2 -147 -2 -185
-12z m213 -166 c25 -12 56 -58 56 -83 0 -14 13 -15 107 -9 l106 6 -7 -24 c-3
-13 -9 -45 -13 -70 l-6 -47 -46 24 c-43 21 -137 50 -280 86 -38 9 -60 21 -74
41 l-21 27 20 27 c32 42 94 51 158 22z"/>
<path d="M3023 905 c-111 -31 -193 -91 -244 -180 l-29 -50 0 118 0 118 -137
-3 -138 -3 -3 -152 -3 -153 -149 0 -150 0 0 155 0 155 -135 0 -135 0 0 -450 0
-450 135 0 135 0 2 183 3 182 147 3 148 3 2 -183 3 -183 138 -3 137 -3 0 117
0 117 39 -61 c73 -113 184 -168 356 -179 164 -10 288 31 375 123 90 95 128
220 117 383 -12 192 -104 325 -264 383 -75 28 -271 35 -350 13z m236 -210 c39
-20 78 -69 91 -113 12 -46 13 -183 0 -236 -11 -48 -36 -83 -81 -114 -29 -20
-44 -23 -101 -20 -82 4 -113 24 -148 94 -22 43 -25 62 -25 159 0 99 3 115 25
155 36 64 79 90 152 90 32 0 72 -7 87 -15z"/>
</g>
</svg>
